HIERARCHY
ROOT hip
{
  OFFSET 0 0 0
  CHANNELS 6 Xposition Yposition Zposition Zrotation Yrotation Xrotation
  JOINT abdomen
  {
    OFFSET 0 20.6881 -0.73152
    CHANNELS 3 Zrotation Xrotation Yrotation
    JOINT chest
    {
      OFFSET 0 11.7043 -0.48768
      CHANNELS 3 Zrotation Xrotation Yrotation
      JOINT neck
      {
        OFFSET 0 22.1894 -2.19456
        CHANNELS 3 Zrotation Xrotation Yrotation
        JOINT head
        {
          OFFSET -0.24384 7.07133 1.2192
          CHANNELS 3 Zrotation Xrotation Yrotation
          JOINT leftEye
          {
            OFFSET 4.14528 8.04674 8.04672
            CHANNELS 3 Zrotation Xrotation Yrotation
            End Site
            {
              OFFSET 1 0 0
            }
          }
          JOINT rightEye
          {
            OFFSET -3.6576 8.04674 8.04672
            CHANNELS 3 Zrotation Xrotation Yrotation
            End Site
            {
              OFFSET 1 0 0
            }
          }
        }
      }
      JOINT rCollar
      {
        OFFSET -2.68224 19.2634 -4.8768
        CHANNELS 3 Zrotation Xrotation Yrotation
        JOINT rShldr
        {
          OFFSET -8.77824 -1.95073 1.46304
          CHANNELS 3 Zrotation Xrotation Yrotation
          JOINT rForeArm
          {
            OFFSET -28.1742 -1.7115 0.48768
            CHANNELS 3 Zrotation Xrotation Yrotation
            JOINT rHand
            {
              OFFSET -22.5879 0.773209 7.07136
              CHANNELS 3 Zrotation Xrotation Yrotation
              JOINT rThumb1
              {
                OFFSET -1.2192 -0.487915 3.41376
                CHANNELS 3 Zrotation Xrotation Yrotation
                JOINT rThumb2
                {
                  OFFSET -3.37035 -0.52449 3.41376
                  CHANNELS 3 Zrotation Xrotation Yrotation
                  End Site
                  {
                    OFFSET -1.78271 -1.18214 1.43049
                  }
                }
              }
              JOINT rIndex1
              {
                OFFSET -7.75947 0.938293 5.60832
                CHANNELS 3 Zrotation Xrotation Yrotation
                JOINT rIndex2
                {
                  OFFSET -2.54057 -0.884171 1.56538
                  CHANNELS 3 Zrotation Xrotation Yrotation
                  End Site
                  {
                    OFFSET -1.62519 -0.234802 1.16502
                  }
                }
              }
              JOINT rMid1
              {
                OFFSET -8.24714 1.18213 3.41376
                CHANNELS 3 Zrotation Xrotation Yrotation
                JOINT rMid2
                {
                  OFFSET -3.10165 -0.590103 1.0647
                  CHANNELS 3 Zrotation Xrotation Yrotation
                  End Site
                  {
                    OFFSET -2.48547 -0.328903 0.83742
                  }
                }
              }
              JOINT rRing1
              {
                OFFSET -8.82822 0.546677 1.51678
                CHANNELS 3 Zrotation Xrotation Yrotation
                JOINT rRing2
                {
                  OFFSET -2.60934 -0.819778 -0.0198488
                  CHANNELS 3 Zrotation Xrotation Yrotation
                  End Site
                  {
                    OFFSET -2.33842 -0.294052 0.168128
                  }
                }
              }
              JOINT rPinky1
              {
                OFFSET -8.27202 -0.0477905 -0.4584
                CHANNELS 3 Zrotation Xrotation Yrotation
                JOINT rPinky2
                {
                  OFFSET -1.82734 -0.647385 -0.700984
                  CHANNELS 3 Zrotation Xrotation Yrotation
                  End Site
                  {
                    OFFSET -1.69225 -0.51767 -0.607171
                  }
                }
              }
            }
          }
        }
      }
      JOINT lCollar
      {
        OFFSET 2.68224 19.2634 -4.8768
        CHANNELS 3 Zrotation Xrotation Yrotation
        JOINT lShldr
        {
          OFFSET 8.77824 -1.95073 1.46304
          CHANNELS 3 Zrotation Xrotation Yrotation
          JOINT lForeArm
          {
            OFFSET 28.1742 -1.7115 0.48768
            CHANNELS 3 Zrotation Xrotation Yrotation
            JOINT lHand
            {
              OFFSET 22.5879 0.773209 7.07136
              CHANNELS 3 Zrotation Xrotation Yrotation
              JOINT lThumb1
              {
                OFFSET 1.2192 -0.487915 3.41376
                CHANNELS 3 Zrotation Xrotation Yrotation
                JOINT lThumb2
                {
                  OFFSET 3.37035 -0.52449 3.41376
                  CHANNELS 3 Zrotation Xrotation Yrotation
                  End Site
                  {
                    OFFSET 1.78271 -1.18214 1.43049
                  }
                }
              }
              JOINT lIndex1
              {
                OFFSET 7.75947 0.938293 5.60832
                CHANNELS 3 Zrotation Xrotation Yrotation
                JOINT lIndex2
                {
                  OFFSET 2.54057 -0.884171 1.56538
                  CHANNELS 3 Zrotation Xrotation Yrotation
                  End Site
                  {
                    OFFSET 1.62519 -0.234802 1.16502
                  }
                }
              }
              JOINT lMid1
              {
                OFFSET 8.24714 1.18213 3.41376
                CHANNELS 3 Zrotation Xrotation Yrotation
                JOINT lMid2
                {
                  OFFSET 3.10165 -0.590103 1.0647
                  CHANNELS 3 Zrotation Xrotation Yrotation
                  End Site
                  {
                    OFFSET 2.48547 -0.328903 0.83742
                  }
                }
              }
              JOINT lRing1
              {
                OFFSET 8.82822 0.546677 1.51678
                CHANNELS 3 Zrotation Xrotation Yrotation
                JOINT lRing2
                {
                  OFFSET 2.60934 -0.819778 -0.0198488
                  CHANNELS 3 Zrotation Xrotation Yrotation
                  End Site
                  {
                    OFFSET 2.33842 -0.294052 0.168128
                  }
                }
              }
              JOINT lPinky1
              {
                OFFSET 8.27202 -0.0477905 -0.4584
                CHANNELS 3 Zrotation Xrotation Yrotation
                JOINT lPinky2
                {
                  OFFSET 1.82734 -0.647385 -0.700984
                  CHANNELS 3 Zrotation Xrotation Yrotation
                  End Site
                  {
                    OFFSET 1.69225 -0.51767 -0.607171
                  }
                }
              }
            }
          }
        }
      }
    }
  }
  JOINT rButtock
  {
    OFFSET -8.77824 4.35084 1.2192
    CHANNELS 3 Zrotation Xrotation Yrotation
    JOINT rThigh
    {
      OFFSET 0 -1.70687 -2.19456
      CHANNELS 3 Zrotation Xrotation Yrotation
      JOINT rShin
      {
        OFFSET 0 -36.8199 0.73152
        CHANNELS 3 Zrotation Xrotation Yrotation
        JOINT rFoot
        {
          OFFSET 0.73152 -45.1104 -5.12064
          CHANNELS 3 Zrotation Xrotation Yrotation
          End Site
          {
            OFFSET -1.1221 -3.69964 12.103
          }
        }
      }
    }
  }
  JOINT lButtock
  {
    OFFSET 8.77824 4.35084 1.2192
    CHANNELS 3 Zrotation Xrotation Yrotation
    JOINT lThigh
    {
      OFFSET 0 -1.70687 -2.19456
      CHANNELS 3 Zrotation Xrotation Yrotation
      JOINT lShin
      {
        OFFSET 0 -36.8199 0.73152
        CHANNELS 3 Zrotation Xrotation Yrotation
        JOINT lFoot
        {
          OFFSET -0.73152 -45.1104 -5.12064
          CHANNELS 3 Zrotation Xrotation Yrotation
          End Site
          {
            OFFSET 1.1221 -3.69964 12.103
          }
        }
      }
    }
  }
}
MOTION
Frames:	8
Frame Time:	0.00833333
-62.8122 81.4305 36.5602 -111.665 85.5983 -94.5889 1.33754 8.63904 3.54143 4.25955 1.3594 1.13156 1.7605 4.42294 -2.47852 -3.59289 27.1352 -0.278523 -0.0 0.0 0.0 -0.0 0.0 0.0 4.30625e-14 1.67104e-14 -3.91358e-16 70.1904 37.7284 35.448 -14.3675 -7.25489 26.2963 -2.99102 -43.1164 -7.56148 -3.78435e-11 4.79296e-10 1.78334e-09 -1.03991e-10 7.03978e-10 3.05943e-09 -3.78397e-11 4.79298e-10 1.78333e-09 7.73091 5.47488 0.417314 -3.78424e-11 4.79303e-10 1.78335e-09 2.90554 0.965183 0.102902 -3.78348e-11 4.79297e-10 1.78333e-09 10.2786 0.731801 0.0259123 -3.78437e-11 4.79296e-10 1.78334e-09 2.22167 -0.733487 -0.20892 4.30327e-14 1.67008e-14 -4.67066e-16 -25.9488 59.6364 -74.8005 16.4145 -9.07884 -30.5532 5.01406 -51.828 10.2984 1.92245e-09 2.17666e-09 -2.95065e-09 3.42029e-09 3.55477e-09 -4.99896e-09 1.92244e-09 2.17666e-09 -2.95065e-09 -7.73091 5.47488 -0.417314 1.92245e-09 2.17666e-09 -2.95065e-09 -2.90554 0.965183 -0.102902 1.92244e-09 2.17666e-09 -2.95065e-09 -10.2786 0.731801 -0.0259123 1.92245e-09 2.17667e-09 -2.95066e-09 -2.22167 -0.733487 0.20892 -2.03217e-16 0.0 -3.88251e-19 -7.29467 -33.0626 -3.205 -0.150722 23.5491 0.330026 -0.848362 -1.51633 -6.54091 2.03217e-16 0.0 3.88251e-19 13.8883 -35.3325 3.47021 0.0471912 27.715 -0.56829 -0.269775 -6.02249 -1.24222
-62.7941 81.4346 36.5799 -109.415 85.5862 -92.3938 1.32972 8.67446 3.53761 4.28609 1.36616 1.13028 1.74806 4.45462 -2.45493 -3.65102 27.0837 -0.226185 -0.0 0.0 0.0 -0.0 0.0 0.0 1.75349e-14 9.89552e-14 -3.29361e-14 70.3795 37.5557 35.4131 -14.3128 -7.2096 26.1855 -2.94582 -42.8665 -7.49523 7.71032e-11 2.01689e-10 8.91328e-10 1.16563e-10 2.69005e-10 1.52933e-09 7.71072e-11 2.01692e-10 8.91317e-10 7.73091 5.47488 0.417314 7.71046e-11 2.01696e-10 8.91351e-10 2.90554 0.965183 0.102902 7.71131e-11 2.0169e-10 8.91327e-10 10.2786 0.731801 0.0259123 7.71014e-11 2.0169e-10 8.91332e-10 2.22167 -0.733487 -0.20892 1.75021e-14 9.89471e-14 -3.30324e-14 -26.0125 59.6216 -74.7313 16.4308 -9.09438 -30.588 5.00449 -51.7954 10.2862 1.45371e-09 1.08906e-09 -1.5478e-09 2.55938e-09 1.72838e-09 -2.60253e-09 1.45371e-09 1.08906e-09 -1.54779e-09 -7.73091 5.47488 -0.417314 1.45371e-09 1.08906e-09 -1.5478e-09 -2.90554 0.965183 -0.102902 1.45371e-09 1.08906e-09 -1.5478e-09 -10.2786 0.731801 -0.0259123 1.45372e-09 1.08906e-09 -1.5478e-09 -2.22167 -0.733487 0.20892 -2.03217e-16 0.0 -3.88251e-19 -7.18846 -33.0315 -3.15173 -0.150398 23.4921 0.329168 -0.834704 -1.4629 -6.46047 2.03217e-16 0.0 3.88251e-19 13.9881 -35.262 3.52908 0.0455782 27.7368 -0.569537 -0.25928 -6.05445 -1.16093
-62.7776 81.4391 36.6019 -107.299 85.5682 -90.3252 1.30873 8.70559 3.54356 4.31973 1.37298 1.13133 1.74543 4.48234 -2.42831 -3.72188 27.0338 -0.16755 -0.0 0.0 0.0 -0.0 0.0 0.0 -7.40848e-15 1.76649e-13 -5.95112e-14 70.5462 37.4128 35.3817 -14.2657 -7.17067 26.0902 -2.90404 -42.6316 -7.43359 1.89388e-10 -9.15424e-11 -5.38452e-11 3.33677e-10 -1.891e-10 -9.20707e-11 1.89393e-10 -9.15402e-11 -5.38554e-11 7.73091 5.47488 0.417314 1.8939e-10 -9.15362e-11 -5.38154e-11 2.90554 0.965183 0.102902 1.894e-10 -9.15417e-11 -5.38421e-11 10.2786 0.731801 0.0259123 1.89385e-10 -9.15425e-11 -5.38338e-11 2.22167 -0.733487 -0.20892 -7.44491e-15 1.76643e-13 -5.9642e-14 -26.0971 59.6055 -74.6479 16.4434 -9.10608 -30.6147 4.99176 -51.7519 10.27 9.0541e-10 -4.30805e-11 -7.84195e-11 1.5591e-09 -1.66535e-10 -9.49895e-11 9.05401e-10 -4.30851e-11 -7.83928e-11 -7.73091 5.47488 -0.417314 9.0541e-10 -4.30818e-11 -7.84114e-11 -2.90554 0.965183 -0.102902 9.05401e-10 -4.30805e-11 -7.84099e-11 -10.2786 0.731801 -0.0259123 9.0541e-10 -4.30791e-11 -7.84121e-11 -2.22167 -0.733487 0.20892 -2.03217e-16 0.0 -3.88251e-19 -7.06685 -33.0043 -3.06447 -0.150199 23.4309 0.328296 -0.822903 -1.40636 -6.39308 2.03217e-16 0.0 3.88251e-19 14.0985 -35.1891 3.611 0.0439517 27.7602 -0.570883 -0.248125 -6.08713 -1.07437
-62.7809 81.4437 36.6255 -106.132 85.5299 -89.1223 1.25072 8.71089 3.54922 4.35567 1.38581 1.1307 1.75945 4.49488 -2.39818 -3.79778 27.0055 -0.102819 -0.0 0.0 0.0 -0.0 0.0 0.0 -1.38987e-14 3.06429e-13 -6.35117e-14 70.5795 37.3994 35.3797 -14.2598 -7.16591 26.0781 -2.89144 -42.5604 -7.41497 1.94978e-10 -2.49728e-10 -5.75941e-10 3.55609e-10 -4.32199e-10 -9.88928e-10 1.94982e-10 -2.49726e-10 -5.75951e-10 7.73091 5.47488 0.417314 1.9498e-10 -2.49723e-10 -5.75909e-10 2.90554 0.965183 0.102902 1.94989e-10 -2.49728e-10 -5.75936e-10 10.2786 0.731801 0.0259123 1.94972e-10 -2.49728e-10 -5.75925e-10 2.22167 -0.733487 -0.20892 -1.3932e-14 3.06424e-13 -6.36608e-14 -26.2116 59.5845 -74.5519 16.4434 -9.10588 -30.6145 4.9778 -51.7042 10.2523 4.76069e-10 -7.34358e-10 8.21801e-10 7.85598e-10 -1.31688e-09 1.43724e-09 4.76059e-10 -7.34363e-10 8.21833e-10 -7.73091 5.47488 -0.417314 4.76069e-10 -7.34359e-10 8.21811e-10 -2.90554 0.965183 -0.102902 4.76059e-10 -7.34358e-10 8.21812e-10 -10.2786 0.731801 -0.0259123 4.7607e-10 -7.34357e-10 8.21811e-10 -2.22167 -0.733487 0.20892 -2.03217e-16 0.0 -3.88251e-19 -6.96981 -33.0004 -2.94857 -0.149933 23.3785 0.327668 -0.816297 -1.3652 -6.35689 2.03217e-16 0.0 3.88251e-19 14.1742 -35.13 3.67935 0.0428566 27.7671 -0.571902 -0.234841 -6.10741 -0.980811
-62.7912 81.4494 36.6435 -105.562 85.5158 -88.4854 1.13409 8.67184 3.55879 4.39524 1.40764 1.12866 1.80321 4.4874 -2.36349 -3.88436 27.0064 -0.0304703 -0.0 0.0 0.0 -0.0 0.0 0.0 1.04234e-14 5.507e-13 -3.01454e-14 70.4019 37.5969 35.4229 -14.3213 -7.21709 26.2018 -2.92522 -42.7527 -7.4651 -7.47322e-12 -1.91912e-10 -4.10014e-10 4.12559e-13 -3.3151e-10 -7.08575e-10 -7.46871e-12 -1.91909e-10 -4.10023e-10 7.73091 5.47488 0.417314 -7.47116e-12 -1.91907e-10 -4.09988e-10 2.90554 0.965183 0.102902 -7.46121e-12 -1.91911e-10 -4.10008e-10 10.2786 0.731801 0.0259123 -7.47957e-12 -1.91911e-10 -4.09998e-10 2.22167 -0.733487 -0.20892 1.04062e-14 5.50694e-13 -3.02844e-14 -26.3815 59.557 -74.428 16.4229 -9.08624 -30.5704 4.96017 -51.6437 10.2298 2.06157e-10 -7.5096e-10 8.48717e-10 3.20206e-10 -1.32746e-09 1.47209e-09 2.06148e-10 -7.50965e-10 8.48748e-10 -7.73091 5.47488 -0.417314 2.06158e-10 -7.5096e-10 8.48725e-10 -2.90554 0.965183 -0.102902 2.06148e-10 -7.5096e-10 8.48726e-10 -10.2786 0.731801 -0.0259123 2.06159e-10 -7.50959e-10 8.48723e-10 -2.22167 -0.733487 0.20892 -2.03217e-16 0.0 -3.88251e-19 -6.90565 -33.0354 -2.77809 -0.149548 23.3385 0.327408 -0.81845 -1.34699 -6.37577 2.03217e-16 0.0 3.88251e-19 14.1974 -35.0943 3.72714 0.0425392 27.7491 -0.572429 -0.217639 -6.10322 -0.872034
-62.7925 81.4562 36.6553 -103.421 85.6292 -86.2997 0.976663 8.60419 3.57534 4.44013 1.43483 1.1269 1.86932 4.46651 -2.3248 -3.98326 27.0249 0.0491305 -0.0 0.0 0.0 -0.0 0.0 0.0 5.34964e-14 8.63488e-13 2.82771e-14 70.0877 37.9338 35.496 -14.4262 -7.30425 26.4139 -2.98914 -43.109 -7.55915 -3.37945e-10 -1.20446e-11 1.43959e-10 -5.86045e-10 -3.58005e-11 2.35508e-10 -3.3794e-10 -1.20407e-11 1.43951e-10 7.73091 5.47488 0.417314 -3.37943e-10 -1.20408e-11 1.43975e-10 2.90554 0.965183 0.102902 -3.37933e-10 -1.20434e-11 1.43964e-10 10.2786 0.731801 0.0259123 -3.37952e-10 -1.20419e-11 1.43974e-10 2.22167 -0.733487 -0.20892 5.3503e-14 8.63481e-13 2.81591e-14 -26.594 59.5248 -74.2808 16.3884 -9.05321 -30.4966 4.9389 -51.5704 10.2027 -6.05097e-12 -3.8656e-10 3.86241e-10 -2.69176e-11 -6.91402e-10 6.66444e-10 -6.05922e-12 -3.86564e-10 3.86267e-10 -7.73091 5.47488 -0.417314 -6.04991e-12 -3.86559e-10 3.86246e-10 -2.90554 0.965183 -0.102902 -6.05828e-12 -3.8656e-10 3.86245e-10 -10.2786 0.731801 -0.0259123 -6.0465e-12 -3.86559e-10 3.8624e-10 -2.22167 -0.733487 0.20892 -2.03217e-16 0.0 -3.88251e-19 -6.85337 -33.095 -2.55905 -0.149145 23.3039 0.32736 -0.826602 -1.34099 -6.43369 2.03217e-16 0.0 3.88251e-19 14.1942 -35.0715 3.77302 0.0426747 27.7169 -0.572708 -0.197887 -6.08441 -0.751558
-62.7876 81.4627 36.7573 -96.9683 85.66 -79.8231 0.813732 8.53778 3.58709 4.48608 1.46337 1.12357 1.93402 4.43809 -2.28407 -4.08088 27.0528 0.132967 -0.0 0.0 0.0 -0.0 0.0 0.0 9.65583e-14 1.13886e-12 8.7706e-14 69.7546 38.2808 35.5765 -14.5329 -7.39308 26.6315 -3.05733 -43.4793 -7.65842 -6.28428e-10 1.78186e-10 7.14832e-10 -1.10378e-09 2.76749e-10 1.20992e-09 -6.28424e-10 1.78191e-10 7.14825e-10 7.73091 5.47488 0.417314 -6.28427e-10 1.78189e-10 7.14837e-10 2.90554 0.965183 0.102902 -6.28417e-10 1.78188e-10 7.14837e-10 10.2786 0.731801 0.0259123 -6.28436e-10 1.7819e-10 7.14844e-10 2.22167 -0.733487 -0.20892 9.65861e-14 1.13885e-12 8.76058e-14 -26.8011 59.4903 -74.1416 16.3527 -9.01915 -30.4206 4.91952 -51.5034 10.1779 -1.75311e-10 5.3024e-11 -1.69245e-10 -2.96383e-10 7.19817e-11 -2.97709e-10 -1.75318e-10 5.30202e-11 -1.69224e-10 -7.73091 5.47488 -0.417314 -1.75309e-10 5.3025e-11 -1.69244e-10 -2.90554 0.965183 -0.102902 -1.75316e-10 5.3024e-11 -1.69245e-10 -10.2786 0.731801 -0.0259123 -1.75304e-10 5.30254e-11 -1.69252e-10 -2.22167 -0.733487 0.20892 -2.03217e-16 0.0 -3.88251e-19 -6.80924 -33.1548 -2.34481 -0.148763 23.2717 0.327359 -0.834553 -1.33828 -6.48896 2.03217e-16 0.0 3.88251e-19 14.1853 -35.0482 3.8189 0.0429493 27.6817 -0.572924 -0.178804 -6.07072 -0.635273
-62.7896 81.4697 36.7752 -99.0576 85.6978 -81.8946 0.680523 8.50245 3.58226 4.52883 1.48923 1.11678 1.9735 4.40803 -2.24324 -4.16354 27.082 0.218 -0.0 0.0 0.0 -0.0 0.0 0.0 1.20847e-13 1.27088e-12 1.24091e-13 69.5218 38.5089 35.639 -14.6011 -7.44986 26.7714 -3.10144 -43.7137 -7.72208 -7.10914e-10 2.67091e-10 9.3146e-10 -1.25282e-09 4.27956e-10 1.58126e-09 -7.1091e-10 2.67096e-10 9.31454e-10 7.73091 5.47488 0.417314 -7.10913e-10 2.67093e-10 9.31457e-10 2.90554 0.965183 0.102902 -7.10903e-10 2.67093e-10 9.31464e-10 10.2786 0.731801 0.0259123 -7.10922e-10 2.67096e-10 9.3147e-10 2.22167 -0.733487 -0.20892 1.20883e-13 1.27088e-12 1.23992e-13 -26.9547 59.4559 -74.0415 16.329 -8.99654 -30.3703 4.90748 -51.4615 10.1625 -3.16376e-10 2.61973e-10 -4.2136e-10 -5.28801e-10 4.43353e-10 -7.38363e-10 -3.16383e-10 2.61969e-10 -4.21341e-10 -7.73091 5.47488 -0.417314 -3.16374e-10 2.61973e-10 -4.2136e-10 -2.90554 0.965183 -0.102902 -3.16381e-10 2.61973e-10 -4.21361e-10 -10.2786 0.731801 -0.0259123 -3.16368e-10 2.61974e-10 -4.21369e-10 -2.22167 -0.733487 0.20892 -2.03217e-16 0.0 -3.88251e-19 -6.77017 -33.1904 -2.1891 -0.148442 23.2386 0.327241 -0.836092 -1.32991 -6.4999 2.03217e-16 0.0 3.88251e-19 14.1912 -35.0109 3.86667 0.0430492 27.6551 -0.573262 -0.163437 -6.08188 -0.53905
